<mxfile host="app.diagrams.net" agent="Mozilla/5.0 (X11; Linux x86_64) AppleWebKit/537.36 (KHTML, like Gecko) Chrome/134.0.0.0 Safari/537.36" version="26.1.1">
  <diagram id="rlGyN0iFnUm2pMGc79Iy" name="Page-1">
    <mxGraphModel dx="2074" dy="2214" grid="1" gridSize="10" guides="1" tooltips="1" connect="1" arrows="1" fold="1" page="1" pageScale="1" pageWidth="850" pageHeight="1100" math="0" shadow="0">
      <root>
        <mxCell id="0" />
        <mxCell id="1" parent="0" />
        <mxCell id="PlrUBp5duMPQ0x3t4gDi-1" value="&lt;b&gt;core&lt;/b&gt;" style="rounded=1;whiteSpace=wrap;html=1;fillColor=#d5e8d4;strokeColor=#82b366;" parent="1" vertex="1">
          <mxGeometry x="365" y="110" width="120" height="40" as="geometry" />
        </mxCell>
        <mxCell id="PlrUBp5duMPQ0x3t4gDi-11" style="edgeStyle=none;rounded=0;orthogonalLoop=1;jettySize=auto;html=1;entryX=0.5;entryY=1;entryDx=0;entryDy=0;" parent="1" source="PlrUBp5duMPQ0x3t4gDi-6" target="PlrUBp5duMPQ0x3t4gDi-1" edge="1">
          <mxGeometry relative="1" as="geometry" />
        </mxCell>
        <mxCell id="PlrUBp5duMPQ0x3t4gDi-6" value="&lt;b&gt;Eventsourcing&lt;/b&gt;" style="rounded=1;whiteSpace=wrap;html=1;fillColor=#ffe6cc;strokeColor=#d79b00;" parent="1" vertex="1">
          <mxGeometry x="205" y="240" width="120" height="40" as="geometry" />
        </mxCell>
        <mxCell id="PlrUBp5duMPQ0x3t4gDi-24" value="&lt;h1&gt;&lt;font color=&quot;#428f15&quot;&gt;Atom SDK&lt;/font&gt;&lt;/h1&gt;" style="text;html=1;strokeColor=none;fillColor=none;align=center;verticalAlign=middle;whiteSpace=wrap;rounded=0;fontSize=24;" parent="1" vertex="1">
          <mxGeometry x="287" y="10" width="280" height="70" as="geometry" />
        </mxCell>
        <mxCell id="eK2VfQrx9qQdzjdbVpaE-3" style="rounded=0;orthogonalLoop=1;jettySize=auto;html=1;exitX=0.5;exitY=0;exitDx=0;exitDy=0;entryX=0.5;entryY=1;entryDx=0;entryDy=0;" parent="1" source="eK2VfQrx9qQdzjdbVpaE-2" target="PlrUBp5duMPQ0x3t4gDi-1" edge="1">
          <mxGeometry relative="1" as="geometry" />
        </mxCell>
        <mxCell id="eK2VfQrx9qQdzjdbVpaE-2" value="&lt;b&gt;XJackson&lt;/b&gt;" style="rounded=1;whiteSpace=wrap;html=1;fillColor=#ffe6cc;strokeColor=#d79b00;" parent="1" vertex="1">
          <mxGeometry x="525" y="240" width="120" height="40" as="geometry" />
        </mxCell>
      </root>
    </mxGraphModel>
  </diagram>
</mxfile>
